# File generated by ImageToStl.com - Free Image and 3D model conversion tools

o obj1
v 87 0 23.5087738
v 87 0 80.4912262
v 83.79706573 0 84.86558533
v 76.11662292 0 11.50116348
v 80.15607452 0 15.11732483
v 6.84392071 0 88.88267517
v 83.79706573 0 19.13441658
v 62.0653038 0 100.57292938
v 56.90699005 0 102.24194336
v 80.15607452 0 88.88267517
v 76.11662292 0 92.49884033
v 71.72261047 0 95.67475128
v 24.93469238 0 100.57292938
v 19.97819138 0 98.37590027
v 15.27738571 0 95.67475128
v 10.88337231 0 11.50116348
v 15.27738571 0 8.32524872
v 51.60293579 0 103.36479187
v 46.21080399 0 103.9292984
v 40.78919601 0 103.9292984
v 10.88337231 0 92.49884033
v 19.97819138 0 5.62409687
v 24.93469238 0 3.42707348
v 30.09300423 0 1.75806141
v 35.39706039 0 0.635203
v 40.78919601 0 0.07070601
v 46.21080399 0 0.07070601
v 51.60293579 0 0.635203
v 56.90699005 0 1.75806141
v 62.0653038 0 3.42707348
v 67.02180481 0 5.62409687
v 71.72261047 0 8.32524872
v 67.02180481 0 98.37590027
v 35.39706039 0 103.36479187
v 30.09300423 0 102.24194336
v 0 0 80.4912262
v 0 0 23.5087738
v 3.20293379 0 84.86558533
v 3.20293379 0 19.13441658
v 6.84392071 0 15.11732483
v 0 60 80.4912262
v 0 60 23.5087738
v 3.20293379 60 84.86558533
v 6.84392071 60 88.88267517
v 10.88337231 60 92.49884033
v 15.27738571 60 95.67475128
v 19.97819138 60 98.37590027
v 24.93469238 60 100.57292938
v 30.09300423 60 102.24194336
v 35.39706039 60 103.36479187
v 40.78919601 60 103.9292984
v 46.21080399 60 103.9292984
v 51.60293579 60 103.36479187
v 56.90699005 60 102.24194336
v 62.0653038 60 100.57292938
v 67.02180481 60 98.37590027
v 71.72261047 60 95.67475128
v 76.11662292 60 92.49884033
v 80.15607452 60 88.88267517
v 83.79706573 60 84.86558533
v 87 60 80.4912262
v 87 60 23.5087738
v 83.79706573 60 19.13441658
v 80.15607452 60 15.11732483
v 76.11662292 60 11.50116348
v 71.72261047 60 8.32524872
v 67.02180481 60 5.62409687
v 62.0653038 60 3.42707348
v 56.90699005 60 1.75806141
v 51.60293579 60 0.635203
v 46.21080399 60 0.07070601
v 40.78919601 60 0.07070601
v 35.39706039 60 0.635203
v 30.09300423 60 1.75806141
v 24.93469238 60 3.42707348
v 19.97819138 60 5.62409687
v 15.27738571 60 8.32524872
v 10.88337231 60 11.50116348
v 6.84392071 60 15.11732483
v 3.20293379 60 19.13441658
vn 0 -1 0
vn -1 0 0
vn -0.81699 0 0.57665
vn -0.79644 0 0.60472
vn -0.75251 0 0.65858
vn -0.72915 0 0.68436
vn -0.67985 0 0.73335
vn -0.65393 0 0.75656
vn -0.5998 0 0.80015
vn -0.5716 0 0.82053
vn -0.51323 0 0.85825
vn -0.48306 0 0.87559
vn -0.42108 0 0.90702
vn -0.38927 0 0.92112
vn -0.32435 0 0.94594
vn -0.29124 0 0.95665
vn -0.2241 0 0.97457
vn -0.19006 0 0.98177
vn -0.12141 0 0.9926
vn -0.0868 0 0.99623
vn -0.0174 0 0.99985
vn 0.0174 0 0.99985
vn 0.0868 0 0.99623
vn 0.12141 0 0.9926
vn 0.19006 0 0.98177
vn 0.2241 0 0.97457
vn 0.29124 0 0.95665
vn 0.32435 0 0.94594
vn 0.38927 0 0.92112
vn 0.42108 0 0.90702
vn 0.48306 0 0.87559
vn 0.51323 0 0.85825
vn 0.5716 0 0.82053
vn 0.5998 0 0.80015
vn 0.65393 0 0.75656
vn 0.67985 0 0.73335
vn 0.72915 0 0.68436
vn 0.75251 0 0.65858
vn 0.79644 0 0.60472
vn 0.81699 0 0.57665
vn 1 0 0
vn 0.81699 0 -0.57665
vn 0.79644 0 -0.60472
vn 0.75251 0 -0.65858
vn 0.72915 0 -0.68436
vn 0.67985 0 -0.73335
vn 0.65393 0 -0.75656
vn 0.5998 0 -0.80015
vn 0.5716 0 -0.82053
vn 0.51323 0 -0.85825
vn 0.48306 0 -0.87559
vn 0.42108 0 -0.90702
vn 0.38927 0 -0.92112
vn 0.32435 0 -0.94594
vn 0.29124 0 -0.95665
vn 0.2241 0 -0.97457
vn 0.19006 0 -0.98177
vn 0.12141 0 -0.9926
vn 0.0868 0 -0.99623
vn 0.0174 0 -0.99985
vn -0.0174 0 -0.99985
vn -0.0868 0 -0.99623
vn -0.12141 0 -0.9926
vn -0.19006 0 -0.98177
vn -0.2241 0 -0.97457
vn -0.29124 0 -0.95665
vn -0.32435 0 -0.94594
vn -0.38927 0 -0.92112
vn -0.42108 0 -0.90702
vn -0.48306 0 -0.87559
vn -0.51323 0 -0.85825
vn -0.5716 0 -0.82053
vn -0.5998 0 -0.80015
vn -0.65393 0 -0.75656
vn -0.67985 0 -0.73335
vn -0.72915 0 -0.68436
vn -0.75251 0 -0.65858
vn -0.79644 0 -0.60472
vn -0.81699 0 -0.57665
vn 0 1 0
f 1//1 2//1 3//1
f 4//1 5//1 6//1
f 6//1 5//1 7//1
f 8//1 9//1 3//1
f 10//1 11//1 12//1
f 13//1 14//1 3//1
f 3//1 14//1 15//1
f 6//1 16//1 17//1
f 9//1 18//1 3//1
f 3//1 18//1 19//1
f 3//1 19//1 20//1
f 7//1 1//1 6//1
f 6//1 1//1 3//1
f 6//1 3//1 21//1
f 21//1 3//1 15//1
f 17//1 22//1 6//1
f 6//1 22//1 23//1
f 6//1 23//1 24//1
f 24//1 25//1 6//1
f 6//1 25//1 26//1
f 6//1 26//1 27//1
f 27//1 28//1 6//1
f 6//1 28//1 29//1
f 6//1 29//1 30//1
f 30//1 31//1 6//1
f 6//1 31//1 32//1
f 6//1 32//1 4//1
f 10//1 12//1 3//1
f 3//1 12//1 33//1
f 3//1 33//1 8//1
f 20//1 34//1 3//1
f 3//1 34//1 35//1
f 3//1 35//1 13//1
f 36//1 37//1 38//1
f 38//1 37//1 39//1
f 38//1 39//1 6//1
f 6//1 39//1 40//1
f 6//1 40//1 16//1
f 36//2 41//2 37//2
f 37//2 41//2 42//2
f 41//3 36//3 38//3
f 41//4 38//4 43//4
f 43//5 38//5 6//5
f 43//6 6//6 44//6
f 44//7 6//7 21//7
f 44//8 21//8 45//8
f 45//9 21//9 15//9
f 45//10 15//10 46//10
f 46//11 15//11 14//11
f 46//12 14//12 47//12
f 47//13 14//13 13//13
f 47//14 13//14 48//14
f 48//15 13//15 35//15
f 48//16 35//16 49//16
f 49//17 35//17 34//17
f 49//18 34//18 50//18
f 50//19 34//19 20//19
f 50//20 20//20 51//20
f 51//21 20//21 19//21
f 51//22 19//22 52//22
f 52//23 19//23 18//23
f 52//24 18//24 53//24
f 53//25 18//25 9//25
f 53//26 9//26 54//26
f 54//27 9//27 8//27
f 54//28 8//28 55//28
f 55//29 8//29 33//29
f 55//30 33//30 56//30
f 56//31 33//31 12//31
f 56//32 12//32 57//32
f 57//33 12//33 11//33
f 57//34 11//34 58//34
f 58//35 11//35 10//35
f 58//36 10//36 59//36
f 59//37 10//37 3//37
f 59//38 3//38 60//38
f 60//39 3//39 2//39
f 60//40 2//40 61//40
f 1//41 62//41 2//41
f 2//41 62//41 61//41
f 62//42 1//42 7//42
f 62//43 7//43 63//43
f 63//44 7//44 5//44
f 63//45 5//45 64//45
f 64//46 5//46 4//46
f 64//47 4//47 65//47
f 65//48 4//48 32//48
f 65//49 32//49 66//49
f 66//50 32//50 31//50
f 66//51 31//51 67//51
f 67//52 31//52 30//52
f 67//53 30//53 68//53
f 68//54 30//54 29//54
f 68//55 29//55 69//55
f 69//56 29//56 28//56
f 69//57 28//57 70//57
f 70//58 28//58 27//58
f 70//59 27//59 71//59
f 71//60 27//60 26//60
f 71//61 26//61 72//61
f 72//62 26//62 25//62
f 72//63 25//63 73//63
f 73//64 25//64 24//64
f 73//65 24//65 74//65
f 74//66 24//66 23//66
f 74//67 23//67 75//67
f 75//68 23//68 22//68
f 75//69 22//69 76//69
f 76//70 22//70 17//70
f 76//71 17//71 77//71
f 77//72 17//72 16//72
f 77//73 16//73 78//73
f 78//74 16//74 40//74
f 78//75 40//75 79//75
f 79//76 40//76 39//76
f 79//77 39//77 80//77
f 80//78 39//78 37//78
f 80//79 37//79 42//79
f 65//80 66//80 44//80
f 62//80 63//80 44//80
f 44//80 63//80 64//80
f 44//80 64//80 65//80
f 45//80 46//80 60//80
f 46//80 47//80 60//80
f 60//80 47//80 48//80
f 60//80 48//80 49//80
f 45//80 60//80 44//80
f 44//80 60//80 61//80
f 44//80 61//80 62//80
f 66//80 67//80 44//80
f 44//80 67//80 68//80
f 44//80 68//80 69//80
f 69//80 70//80 44//80
f 44//80 70//80 71//80
f 44//80 71//80 72//80
f 72//80 73//80 44//80
f 44//80 73//80 74//80
f 44//80 74//80 75//80
f 75//80 76//80 44//80
f 44//80 76//80 77//80
f 44//80 77//80 78//80
f 80//80 42//80 41//80
f 49//80 50//80 60//80
f 60//80 50//80 51//80
f 60//80 51//80 52//80
f 58//80 54//80 57//80
f 57//80 54//80 55//80
f 57//80 55//80 56//80
f 78//80 79//80 44//80
f 44//80 79//80 80//80
f 44//80 80//80 43//80
f 43//80 80//80 41//80
f 52//80 53//80 60//80
f 60//80 53//80 54//80
f 60//80 54//80 59//80
f 59//80 54//80 58//80
# Vertices: 80, normals: 80, texture coordinates: 0, faces: 156

